<!-- Generated by IcoMoon.io -->
<svg version="1.1" xmlns="http://www.w3.org/2000/svg" width="28" height="32" viewBox="0 0 28 32">
<path fill="#4d8dff" d="M9.806 0h8.258c5.416 0 9.806 4.391 9.806 9.806v8.258c0 5.416-4.39 9.806-9.806 9.806h-8.258c-5.416 0-9.806-4.39-9.806-9.806v-8.258c0-5.416 4.391-9.806 9.806-9.806z"></path>
<path fill="#fff" d="M14.184 13.235l0.604 0.281 0.899-0.267v-0.627c0-1.065-0.899-1.917-1.972-1.917-1.069 0-1.972 0.848-1.972 1.903v2.857c0 0.263-0.212 0.47-0.47 0.47s-0.47-0.207-0.47-0.47v-1.207h-1.512c0 1.212 0 1.226 0 1.226 0 1.092 0.885 1.977 1.977 1.977 1.083 0 1.977-0.871 1.977-1.949v-2.82c0-0.258 0.212-0.47 0.47-0.47s0.47 0.212 0.47 0.47v0.544zM16.627 14.258v1.267c0 0.258-0.212 0.465-0.47 0.465s-0.47-0.207-0.47-0.465v-1.244l-0.899 0.267-0.604-0.281v1.235c0 1.083 0.889 1.959 1.977 1.959 1.092 0 1.977-0.885 1.977-1.977 0 0 0-0.014 0-1.226h-1.512z"></path>
</svg>
