<!-- Generated by IcoMoon.io -->
<svg version="1.1" xmlns="http://www.w3.org/2000/svg" width="28" height="32" viewBox="0 0 28 32">
<path fill="#740a76" d="M9.806 0h8.258c5.416 0 9.806 4.391 9.806 9.806v8.258c0 5.416-4.39 9.806-9.806 9.806h-8.258c-5.416 0-9.806-4.39-9.806-9.806v-8.258c0-5.416 4.391-9.806 9.806-9.806z"></path>
<path fill="#fff" d="M13.935 17.622c0.074 0 0.147-0.028 0.203-0.083l2.871-2.765c0.041-0.041 1.055-0.968 1.055-2.074 0-1.35-0.825-2.157-2.203-2.157-0.806 0-1.562 0.636-1.926 0.995-0.364-0.359-1.12-0.995-1.926-0.995-1.378 0-2.203 0.806-2.203 2.157 0 1.106 1.014 2.032 1.051 2.065l2.876 2.774c0.055 0.055 0.129 0.083 0.203 0.083z"></path>
</svg>
