<!-- Generated by IcoMoon.io -->
<svg version="1.1" xmlns="http://www.w3.org/2000/svg" width="28" height="32" viewBox="0 0 28 32">
<path fill="#02897a" d="M9.806 0h8.258c5.416 0 9.806 4.391 9.806 9.806v8.258c0 5.416-4.39 9.806-9.806 9.806h-8.258c-5.416 0-9.806-4.39-9.806-9.806v-8.258c0-5.416 4.391-9.806 9.806-9.806z"></path>
<path fill="#fff" d="M16.576 14.76l-4.719-4.719c-0.055-0.060-0.129-0.088-0.207-0.088-0.037 0-0.078 0.009-0.111 0.023-0.111 0.046-0.184 0.152-0.184 0.272v6.931c0 0.12 0.074 0.226 0.184 0.272 0.032 0.014 0.074 0.023 0.111 0.023 0.078 0 0.152-0.032 0.207-0.088l1.438-1.438 0.88 2.083c0.065 0.147 0.235 0.221 0.387 0.157l0.816-0.346c0.148-0.065 0.221-0.235 0.157-0.387l-0.926-2.194h1.76c0.12 0 0.226-0.074 0.272-0.184 0.046-0.106 0.023-0.235-0.065-0.318z"></path>
</svg>
